# xmcd
#
# Track frame offsets: 
#        150
#        9559
#        26549
#        35207
#        46354
#        55362
#        70630
#        78773
#        93693
#        103993
#        119437
#        124918
#        138108
#        152824
#        166159
#        180970
#        194679
#        206447
#        217516
#        224961
#        233500
#        249147
#        263298
#        279262
#        295289
#        309182
#        320389
#        324183
#        331366
#
# Disc length: 4602 seconds
#
# Revision: 0
# Processed by: cddbd v1.5.2PL0 Copyright (c) Steve Scherf et al.
# Submitted via: ExactAudioCopy v1.1
#
DISCID=9111f81d
DTITLE=Various Artist - Louisiana Hayride_CD04
DYEAR=2017
DGENRE=Country
TTITLE0=Jim Reeves - Red Eyed And Rowdy
TTITLE1=Elvis Presley - Tweedlee Dee (& Talk and outro)
TTITLE2=Jimmy Newman - Blue Darling
TTITLE3=Jeanette Hicks - Just Like In The Movies
TTITLE4=Betty Amos - Yes Ma'am, Ma
TTITLE5=Elvis Presley - I'm Left, You're Right, She's Gone
TTITLE6=Bill Peters - Ida Red
TTITLE7=Billy Walker and Jeanette Hicks - Which One Of Us Is To Blame
TTITLE8=Johnny Horton - Gone With The Wind This Morning
TTITLE9=Hoot and Curley - You Get What You Pay For (& Talk about future 
TTITLE9=shows)
TTITLE10=Jeanette Hicks and Hoot and Curley - Lucky Strike Ad
TTITLE11=Jeanette Hicks - Ain't That A Shame
TTITLE12=Elvis Presley - Baby Let's Play House
TTITLE13=Elvis Presley - Maybelline
TTITLE14=Floyd Cramer and Jimmy Day - Floyd And Jimmy Boogie
TTITLE15=Jim Reeves - Yonder Comes A Sucker
TTITLE16=David Houston - Squaws Along The Yukon
TTITLE17=Billy Walker - I Can't Keep The Girls Away
TTITLE18=Johnny Cash - Hey Porter
TTITLE19=Johnny Cash - Luther Played The Boogie
TTITLE20=Werly Fairburn - Stay Close To Me (& Theme and Logan "genial"
TTITLE20=talk)
TTITLE21=Betty Amos - Ivory Tower
TTITLE22=Johnny Horton - Honky Tonk Man (& Talk about state fair)
TTITLE23=Hoot and Curley and Jack Ford - Standing At The Station
TTITLE24=Gary Bryant - Loose Talk
TTITLE25=Jeanette Hicks - Slippin' And Slidin'
TTITLE26=Talk and Outro
TTITLE27=Dobber Johnson - Bill Cheatham (& Talk about fiddle tunes)
TTITLE28=Jimmy Newman - I Want To Tell All The World
EXTD=
EXTT0=
EXTT1=
EXTT2=
EXTT3=
EXTT4=
EXTT5=
EXTT6=
EXTT7=
EXTT8=
EXTT9=
EXTT10=
EXTT11=
EXTT12=
EXTT13=
EXTT14=
EXTT15=
EXTT16=
EXTT17=
EXTT18=
EXTT19=
EXTT20=
EXTT21=
EXTT22=
EXTT23=
EXTT24=
EXTT25=
EXTT26=
EXTT27=
EXTT28=
PLAYORDER=
